<svg width="163" height="38" viewBox="0 0 163 38" fill="none" xmlns="http://www.w3.org/2000/svg">
<path d="M19 0.5H144C154.217 0.5 162.5 8.78273 162.5 19C162.5 29.2173 154.217 37.5 144 37.5H19C8.78273 37.5 0.5 29.2173 0.5 19C0.5 8.78273 8.78273 0.5 19 0.5Z" fill="#0013FF"/>
<path d="M19 0.5H144C154.217 0.5 162.5 8.78273 162.5 19C162.5 29.2173 154.217 37.5 144 37.5H19C8.78273 37.5 0.5 29.2173 0.5 19C0.5 8.78273 8.78273 0.5 19 0.5Z" stroke="#DCE0E9"/>
<path d="M26.7583 15.832C25.5956 15.832 24.753 16.1573 24.2303 16.808C23.7183 17.448 23.4623 18.328 23.4623 19.448C23.4623 19.992 23.5263 20.488 23.6543 20.936C23.7823 21.3733 23.9743 21.752 24.2303 22.072C24.4863 22.392 24.8063 22.6427 25.1903 22.824C25.5743 22.9947 26.0223 23.08 26.5343 23.08C26.8116 23.08 27.0463 23.0747 27.2383 23.064C27.441 23.0533 27.617 23.032 27.7663 23V19.144H30.2623V24.632C29.9636 24.7493 29.4836 24.872 28.8223 25C28.161 25.1387 27.345 25.208 26.3743 25.208C25.5423 25.208 24.785 25.08 24.1023 24.824C23.4303 24.568 22.8543 24.1947 22.3743 23.704C21.8943 23.2133 21.521 22.6107 21.2543 21.896C20.9983 21.1813 20.8703 20.3653 20.8703 19.448C20.8703 18.52 21.0143 17.6987 21.3023 16.984C21.5903 16.2693 21.985 15.6667 22.4863 15.176C22.9876 14.6747 23.5743 14.296 24.2463 14.04C24.929 13.784 25.6543 13.656 26.4223 13.656C26.945 13.656 27.4143 13.6933 27.8303 13.768C28.257 13.832 28.6196 13.912 28.9183 14.008C29.2276 14.0933 29.4783 14.184 29.6703 14.28C29.873 14.376 30.017 14.4507 30.1023 14.504L29.3823 16.504C29.041 16.3227 28.6463 16.168 28.1983 16.04C27.761 15.9013 27.281 15.832 26.7583 15.832ZM32.0247 20.856C32.0247 20.1093 32.1367 19.4587 32.3607 18.904C32.5954 18.3387 32.8994 17.8693 33.2727 17.496C33.646 17.1227 34.0727 16.84 34.5527 16.648C35.0434 16.456 35.5447 16.36 36.0567 16.36C37.2514 16.36 38.1954 16.728 38.8887 17.464C39.582 18.1893 39.9287 19.2613 39.9287 20.68C39.9287 20.8187 39.9234 20.9733 39.9127 21.144C39.902 21.304 39.8914 21.448 39.8807 21.576H34.4727C34.526 22.0667 34.7554 22.456 35.1607 22.744C35.566 23.032 36.11 23.176 36.7927 23.176C37.23 23.176 37.6567 23.1387 38.0727 23.064C38.4994 22.9787 38.846 22.8773 39.1127 22.76L39.4327 24.696C39.3047 24.76 39.134 24.824 38.9207 24.888C38.7074 24.952 38.4674 25.0053 38.2007 25.048C37.9447 25.1013 37.6674 25.144 37.3687 25.176C37.07 25.208 36.7714 25.224 36.4727 25.224C35.7154 25.224 35.054 25.112 34.4887 24.888C33.934 24.664 33.47 24.36 33.0967 23.976C32.734 23.5813 32.462 23.1173 32.2807 22.584C32.11 22.0507 32.0247 21.4747 32.0247 20.856ZM37.6247 19.944C37.614 19.7413 37.5767 19.544 37.5127 19.352C37.4594 19.16 37.3687 18.9893 37.2407 18.84C37.1234 18.6907 36.9687 18.568 36.7767 18.472C36.5954 18.376 36.366 18.328 36.0887 18.328C35.822 18.328 35.5927 18.376 35.4007 18.472C35.2087 18.5573 35.0487 18.6747 34.9207 18.824C34.7927 18.9733 34.6914 19.1493 34.6167 19.352C34.5527 19.544 34.5047 19.7413 34.4727 19.944H37.6247ZM41.6884 14.488L44.0724 14.104V16.584H46.9364V18.568H44.0724V21.528C44.0724 22.0293 44.1578 22.4293 44.3284 22.728C44.5098 23.0267 44.8671 23.176 45.4004 23.176C45.6564 23.176 45.9178 23.1547 46.1844 23.112C46.4618 23.0587 46.7124 22.9893 46.9364 22.904L47.2724 24.76C46.9844 24.8773 46.6644 24.9787 46.3124 25.064C45.9604 25.1493 45.5284 25.192 45.0164 25.192C44.3658 25.192 43.8271 25.1067 43.4004 24.936C42.9738 24.7547 42.6324 24.5093 42.3764 24.2C42.1204 23.88 41.9391 23.496 41.8324 23.048C41.7364 22.6 41.6884 22.104 41.6884 21.56V14.488ZM52.3216 20.856C52.3216 20.1093 52.4336 19.4587 52.6576 18.904C52.8922 18.3387 53.1962 17.8693 53.5696 17.496C53.9429 17.1227 54.3696 16.84 54.8496 16.648C55.3402 16.456 55.8416 16.36 56.3536 16.36C57.5482 16.36 58.4922 16.728 59.1856 17.464C59.8789 18.1893 60.2256 19.2613 60.2256 20.68C60.2256 20.8187 60.2202 20.9733 60.2096 21.144C60.1989 21.304 60.1882 21.448 60.1776 21.576H54.7696C54.8229 22.0667 55.0522 22.456 55.4576 22.744C55.8629 23.032 56.4069 23.176 57.0896 23.176C57.5269 23.176 57.9536 23.1387 58.3696 23.064C58.7962 22.9787 59.1429 22.8773 59.4096 22.76L59.7296 24.696C59.6016 24.76 59.4309 24.824 59.2176 24.888C59.0042 24.952 58.7642 25.0053 58.4976 25.048C58.2416 25.1013 57.9642 25.144 57.6656 25.176C57.3669 25.208 57.0682 25.224 56.7696 25.224C56.0122 25.224 55.3509 25.112 54.7856 24.888C54.2309 24.664 53.7669 24.36 53.3936 23.976C53.0309 23.5813 52.7589 23.1173 52.5776 22.584C52.4069 22.0507 52.3216 21.4747 52.3216 20.856ZM57.9216 19.944C57.9109 19.7413 57.8736 19.544 57.8096 19.352C57.7562 19.16 57.6656 18.9893 57.5376 18.84C57.4202 18.6907 57.2656 18.568 57.0736 18.472C56.8922 18.376 56.6629 18.328 56.3856 18.328C56.1189 18.328 55.8896 18.376 55.6976 18.472C55.5056 18.5573 55.3456 18.6747 55.2176 18.824C55.0896 18.9733 54.9882 19.1493 54.9136 19.352C54.8496 19.544 54.8016 19.7413 54.7696 19.944H57.9216ZM65.2813 23.336C65.516 23.336 65.74 23.3307 65.9533 23.32C66.1666 23.3093 66.3373 23.2933 66.4653 23.272V21.464C66.3693 21.4427 66.2253 21.4213 66.0333 21.4C65.8413 21.3787 65.6653 21.368 65.5053 21.368C65.2813 21.368 65.068 21.384 64.8653 21.416C64.6733 21.4373 64.5026 21.4853 64.3533 21.56C64.204 21.6347 64.0866 21.736 64.0013 21.864C63.916 21.992 63.8733 22.152 63.8733 22.344C63.8733 22.7173 63.996 22.9787 64.2413 23.128C64.4973 23.2667 64.844 23.336 65.2813 23.336ZM65.0893 16.36C65.7933 16.36 66.38 16.44 66.8493 16.6C67.3186 16.76 67.692 16.9893 67.9693 17.288C68.2573 17.5867 68.46 17.9493 68.5773 18.376C68.6946 18.8027 68.7533 19.2773 68.7533 19.8V24.76C68.412 24.8347 67.9373 24.92 67.3293 25.016C66.7213 25.1227 65.9853 25.176 65.1213 25.176C64.5773 25.176 64.0813 25.128 63.6333 25.032C63.196 24.936 62.8173 24.7813 62.4973 24.568C62.1773 24.344 61.932 24.056 61.7613 23.704C61.5906 23.352 61.5053 22.92 61.5053 22.408C61.5053 21.9173 61.6013 21.5013 61.7933 21.16C61.996 20.8187 62.2626 20.5467 62.5933 20.344C62.924 20.1413 63.3026 19.9973 63.7293 19.912C64.156 19.816 64.5986 19.768 65.0573 19.768C65.3666 19.768 65.6386 19.784 65.8733 19.816C66.1186 19.8373 66.316 19.8693 66.4653 19.912V19.688C66.4653 19.2827 66.3426 18.9573 66.0973 18.712C65.852 18.4667 65.4253 18.344 64.8173 18.344C64.412 18.344 64.012 18.376 63.6173 18.44C63.2226 18.4933 62.8813 18.5733 62.5933 18.68L62.2893 16.76C62.428 16.7173 62.5986 16.6747 62.8013 16.632C63.0146 16.5787 63.244 16.536 63.4893 16.504C63.7346 16.4613 63.9906 16.4293 64.2573 16.408C64.5346 16.376 64.812 16.36 65.0893 16.36ZM75.9811 18.696C75.7677 18.6427 75.5171 18.5893 75.2291 18.536C74.9411 18.472 74.6317 18.44 74.3011 18.44C74.1517 18.44 73.9704 18.456 73.7571 18.488C73.5544 18.5093 73.3997 18.536 73.2931 18.568V25H70.9091V17.032C71.3357 16.8827 71.8371 16.744 72.4131 16.616C72.9997 16.4773 73.6504 16.408 74.3651 16.408C74.4931 16.408 74.6477 16.4187 74.8291 16.44C75.0104 16.4507 75.1917 16.472 75.3731 16.504C75.5544 16.5253 75.7357 16.5573 75.9171 16.6C76.0984 16.632 76.2531 16.6747 76.3811 16.728L75.9811 18.696ZM81.0191 25.16C80.3257 25.1493 79.7604 25.0747 79.3231 24.936C78.8964 24.7973 78.5551 24.6053 78.2991 24.36C78.0537 24.104 77.8831 23.8 77.7871 23.448C77.7017 23.0853 77.6591 22.68 77.6591 22.232V12.968L80.0431 12.584V21.752C80.0431 21.9653 80.0591 22.1573 80.0911 22.328C80.1231 22.4987 80.1817 22.6427 80.2671 22.76C80.3631 22.8773 80.4964 22.9733 80.6671 23.048C80.8377 23.1227 81.0671 23.1707 81.3551 23.192L81.0191 25.16ZM90.0217 16.584C89.5417 18.2053 89.0404 19.7253 88.5177 21.144C87.995 22.5627 87.4244 23.9387 86.8057 25.272C86.5817 25.752 86.3577 26.1573 86.1337 26.488C85.9097 26.8293 85.6644 27.1067 85.3977 27.32C85.131 27.544 84.827 27.704 84.4857 27.8C84.155 27.9067 83.7657 27.96 83.3177 27.96C82.9444 27.96 82.5977 27.9227 82.2777 27.848C81.9684 27.784 81.7124 27.7093 81.5097 27.624L81.9257 25.72C82.171 25.8053 82.3897 25.864 82.5817 25.896C82.7737 25.928 82.9764 25.944 83.1897 25.944C83.6164 25.944 83.9417 25.8267 84.1657 25.592C84.4004 25.368 84.5977 25.0533 84.7577 24.648C84.2137 23.5813 83.6697 22.3867 83.1257 21.064C82.5817 19.7307 82.0697 18.2373 81.5897 16.584H84.1177C84.2244 17 84.347 17.4533 84.4857 17.944C84.635 18.424 84.7897 18.9147 84.9497 19.416C85.1097 19.9067 85.2697 20.3867 85.4297 20.856C85.6004 21.3253 85.7604 21.752 85.9097 22.136C86.0484 21.752 86.1924 21.3253 86.3417 20.856C86.491 20.3867 86.635 19.9067 86.7737 19.416C86.923 18.9147 87.0617 18.424 87.1897 17.944C87.3284 17.4533 87.451 17 87.5577 16.584H90.0217ZM98.3594 23.336C98.5941 23.336 98.8181 23.3307 99.0314 23.32C99.2448 23.3093 99.4154 23.2933 99.5434 23.272V21.464C99.4474 21.4427 99.3034 21.4213 99.1114 21.4C98.9194 21.3787 98.7434 21.368 98.5834 21.368C98.3594 21.368 98.1461 21.384 97.9434 21.416C97.7514 21.4373 97.5808 21.4853 97.4314 21.56C97.2821 21.6347 97.1648 21.736 97.0794 21.864C96.9941 21.992 96.9514 22.152 96.9514 22.344C96.9514 22.7173 97.0741 22.9787 97.3194 23.128C97.5754 23.2667 97.9221 23.336 98.3594 23.336ZM98.1674 16.36C98.8714 16.36 99.4581 16.44 99.9274 16.6C100.397 16.76 100.77 16.9893 101.047 17.288C101.335 17.5867 101.538 17.9493 101.655 18.376C101.773 18.8027 101.831 19.2773 101.831 19.8V24.76C101.49 24.8347 101.015 24.92 100.407 25.016C99.7994 25.1227 99.0634 25.176 98.1994 25.176C97.6554 25.176 97.1594 25.128 96.7114 25.032C96.2741 24.936 95.8954 24.7813 95.5754 24.568C95.2554 24.344 95.0101 24.056 94.8394 23.704C94.6688 23.352 94.5834 22.92 94.5834 22.408C94.5834 21.9173 94.6794 21.5013 94.8714 21.16C95.0741 20.8187 95.3408 20.5467 95.6714 20.344C96.0021 20.1413 96.3808 19.9973 96.8074 19.912C97.2341 19.816 97.6768 19.768 98.1354 19.768C98.4448 19.768 98.7168 19.784 98.9514 19.816C99.1968 19.8373 99.3941 19.8693 99.5434 19.912V19.688C99.5434 19.2827 99.4208 18.9573 99.1754 18.712C98.9301 18.4667 98.5034 18.344 97.8954 18.344C97.4901 18.344 97.0901 18.376 96.6954 18.44C96.3008 18.4933 95.9594 18.5733 95.6714 18.68L95.3674 16.76C95.5061 16.7173 95.6768 16.6747 95.8794 16.632C96.0928 16.5787 96.3221 16.536 96.5674 16.504C96.8128 16.4613 97.0688 16.4293 97.3354 16.408C97.6128 16.376 97.8901 16.36 98.1674 16.36ZM103.587 20.792C103.587 20.184 103.683 19.6133 103.875 19.08C104.078 18.536 104.366 18.0667 104.739 17.672C105.113 17.2667 105.566 16.9467 106.099 16.712C106.633 16.4773 107.241 16.36 107.923 16.36C108.371 16.36 108.782 16.4027 109.155 16.488C109.529 16.5627 109.891 16.6747 110.243 16.824L109.747 18.728C109.523 18.6427 109.278 18.568 109.011 18.504C108.745 18.44 108.446 18.408 108.115 18.408C107.411 18.408 106.883 18.6267 106.531 19.064C106.19 19.5013 106.019 20.0773 106.019 20.792C106.019 21.5493 106.179 22.136 106.499 22.552C106.83 22.968 107.401 23.176 108.211 23.176C108.499 23.176 108.809 23.1493 109.139 23.096C109.47 23.0427 109.774 22.9573 110.051 22.84L110.387 24.792C110.11 24.9093 109.763 25.0107 109.347 25.096C108.931 25.1813 108.473 25.224 107.971 25.224C107.203 25.224 106.542 25.112 105.987 24.888C105.433 24.6533 104.974 24.3387 104.611 23.944C104.259 23.5493 103.998 23.0853 103.827 22.552C103.667 22.008 103.587 21.4213 103.587 20.792ZM111.181 20.792C111.181 20.184 111.277 19.6133 111.469 19.08C111.672 18.536 111.96 18.0667 112.333 17.672C112.706 17.2667 113.16 16.9467 113.693 16.712C114.226 16.4773 114.834 16.36 115.517 16.36C115.965 16.36 116.376 16.4027 116.749 16.488C117.122 16.5627 117.485 16.6747 117.837 16.824L117.341 18.728C117.117 18.6427 116.872 18.568 116.605 18.504C116.338 18.44 116.04 18.408 115.709 18.408C115.005 18.408 114.477 18.6267 114.125 19.064C113.784 19.5013 113.613 20.0773 113.613 20.792C113.613 21.5493 113.773 22.136 114.093 22.552C114.424 22.968 114.994 23.176 115.805 23.176C116.093 23.176 116.402 23.1493 116.733 23.096C117.064 23.0427 117.368 22.9573 117.645 22.84L117.981 24.792C117.704 24.9093 117.357 25.0107 116.941 25.096C116.525 25.1813 116.066 25.224 115.565 25.224C114.797 25.224 114.136 25.112 113.581 24.888C113.026 24.6533 112.568 24.3387 112.205 23.944C111.853 23.5493 111.592 23.0853 111.421 22.552C111.261 22.008 111.181 21.4213 111.181 20.792ZM118.775 20.856C118.775 20.1093 118.887 19.4587 119.111 18.904C119.345 18.3387 119.649 17.8693 120.023 17.496C120.396 17.1227 120.823 16.84 121.303 16.648C121.793 16.456 122.295 16.36 122.807 16.36C124.001 16.36 124.945 16.728 125.639 17.464C126.332 18.1893 126.679 19.2613 126.679 20.68C126.679 20.8187 126.673 20.9733 126.663 21.144C126.652 21.304 126.641 21.448 126.631 21.576H121.223C121.276 22.0667 121.505 22.456 121.911 22.744C122.316 23.032 122.86 23.176 123.543 23.176C123.98 23.176 124.407 23.1387 124.823 23.064C125.249 22.9787 125.596 22.8773 125.863 22.76L126.183 24.696C126.055 24.76 125.884 24.824 125.671 24.888C125.457 24.952 125.217 25.0053 124.951 25.048C124.695 25.1013 124.417 25.144 124.119 25.176C123.82 25.208 123.521 25.224 123.223 25.224C122.465 25.224 121.804 25.112 121.239 24.888C120.684 24.664 120.22 24.36 119.847 23.976C119.484 23.5813 119.212 23.1173 119.031 22.584C118.86 22.0507 118.775 21.4747 118.775 20.856ZM124.375 19.944C124.364 19.7413 124.327 19.544 124.263 19.352C124.209 19.16 124.119 18.9893 123.991 18.84C123.873 18.6907 123.719 18.568 123.527 18.472C123.345 18.376 123.116 18.328 122.839 18.328C122.572 18.328 122.343 18.376 122.151 18.472C121.959 18.5573 121.799 18.6747 121.671 18.824C121.543 18.9733 121.441 19.1493 121.367 19.352C121.303 19.544 121.255 19.7413 121.223 19.944H124.375ZM130.934 23.288C131.372 23.288 131.681 23.2453 131.862 23.16C132.044 23.0747 132.134 22.9093 132.134 22.664C132.134 22.472 132.017 22.3067 131.782 22.168C131.548 22.0187 131.19 21.8533 130.71 21.672C130.337 21.5333 129.996 21.3893 129.686 21.24C129.388 21.0907 129.132 20.9147 128.918 20.712C128.705 20.4987 128.54 20.248 128.422 19.96C128.305 19.672 128.246 19.3253 128.246 18.92C128.246 18.1307 128.54 17.5067 129.126 17.048C129.713 16.5893 130.518 16.36 131.542 16.36C132.054 16.36 132.545 16.408 133.014 16.504C133.484 16.5893 133.857 16.6853 134.134 16.792L133.718 18.648C133.441 18.552 133.137 18.4667 132.806 18.392C132.486 18.3173 132.124 18.28 131.718 18.28C130.972 18.28 130.598 18.488 130.598 18.904C130.598 19 130.614 19.0853 130.646 19.16C130.678 19.2347 130.742 19.3093 130.838 19.384C130.934 19.448 131.062 19.5227 131.222 19.608C131.393 19.6827 131.606 19.768 131.862 19.864C132.385 20.056 132.817 20.248 133.158 20.44C133.5 20.6213 133.766 20.824 133.958 21.048C134.161 21.2613 134.3 21.5013 134.374 21.768C134.46 22.0347 134.502 22.344 134.502 22.696C134.502 23.528 134.188 24.1573 133.558 24.584C132.94 25.0107 132.06 25.224 130.918 25.224C130.172 25.224 129.548 25.16 129.046 25.032C128.556 24.904 128.214 24.7973 128.022 24.712L128.422 22.776C128.828 22.936 129.244 23.064 129.67 23.16C130.097 23.2453 130.518 23.288 130.934 23.288ZM138.7 23.288C139.137 23.288 139.447 23.2453 139.628 23.16C139.809 23.0747 139.9 22.9093 139.9 22.664C139.9 22.472 139.783 22.3067 139.548 22.168C139.313 22.0187 138.956 21.8533 138.476 21.672C138.103 21.5333 137.761 21.3893 137.452 21.24C137.153 21.0907 136.897 20.9147 136.684 20.712C136.471 20.4987 136.305 20.248 136.188 19.96C136.071 19.672 136.012 19.3253 136.012 18.92C136.012 18.1307 136.305 17.5067 136.892 17.048C137.479 16.5893 138.284 16.36 139.308 16.36C139.82 16.36 140.311 16.408 140.78 16.504C141.249 16.5893 141.623 16.6853 141.9 16.792L141.484 18.648C141.207 18.552 140.903 18.4667 140.572 18.392C140.252 18.3173 139.889 18.28 139.484 18.28C138.737 18.28 138.364 18.488 138.364 18.904C138.364 19 138.38 19.0853 138.412 19.16C138.444 19.2347 138.508 19.3093 138.604 19.384C138.7 19.448 138.828 19.5227 138.988 19.608C139.159 19.6827 139.372 19.768 139.628 19.864C140.151 20.056 140.583 20.248 140.924 20.44C141.265 20.6213 141.532 20.824 141.724 21.048C141.927 21.2613 142.065 21.5013 142.14 21.768C142.225 22.0347 142.268 22.344 142.268 22.696C142.268 23.528 141.953 24.1573 141.324 24.584C140.705 25.0107 139.825 25.224 138.684 25.224C137.937 25.224 137.313 25.16 136.812 25.032C136.321 24.904 135.98 24.7973 135.788 24.712L136.188 22.776C136.593 22.936 137.009 23.064 137.436 23.16C137.863 23.2453 138.284 23.288 138.7 23.288Z" fill="white"/>
</svg>
